#!OML:ASF F:\VICON\USERDATA\INSTALL\rory3\rory3.ASF
:FULLY-SPECIFIED
:DEGREES
807
root -0.131418 15.6565 19.3376 -145.514 -37.0149 -192.676
lowerback -22.625 -0.742639 -7.78213
upperback -6.26253 0.0312036 -5.1293
thorax 5.66572 -0.519887 -1.17912
lowerneck -6.80908 6.67207 2.02423
upperneck 14.8763 8.84666 -2.03181
head 5.79789 4.15455 -0.349771
rclavicle -9.09688e-014 -2.78299e-014
rhumerus -42.0423 -14.1057 -75.835
rradius 21.738
rwrist -2.85755
rhand -6.37957 19.5193
rfingers 7.12502
rthumb 19.4674 -9.52611
lclavicle -9.09688e-014 -2.78299e-014
lhumerus -46.5734 -21.2884 88.5331
lradius 79.9939
lwrist -40.1701
lhand 13.2403 16.9813
lfingers 7.12502
lthumb 38.1927 42.7278
rfemur 109.211 -152.793 -162.475
rtibia 66.5217
rfoot -21.1682 -12.9937
rtoes -13.5515
lfemur -28.6759 -9.66035 -24.3214
ltibia 40.9241
lfoot -40.831 17.4616
ltoes -28.1115
808
root -0.101792 15.6447 19.2478 -145.497 -37.594 -192.567
lowerback -22.0687 -0.615736 -7.32855
upperback -6.53462 0.000102345 -5.28947
thorax 5.08964 -0.526219 -1.59572
lowerneck -6.18921 6.64862 2.51594
upperneck 14.566 8.78604 -2.25634
head 5.6265 4.14582 -0.528026
rclavicle 1.0138e-014 -5.64548e-014
rhumerus -42.6272 -15.0731 -75.0858
rradius 20.3378
rwrist -0.495841
rhand -5.01007 19.0263
rfingers 7.12502
rthumb 20.7837 -9.88057
lclavicle 1.0138e-014 -5.64548e-014
lhumerus -46.7671 -20.7705 88.0874
lradius 79.9902
lwrist -40.4174
lhand 13.4522 17.1267
lfingers 7.12502
lthumb 38.3928 42.818
rfemur 109.432 -152.787 -161.803
rtibia 66.6013
rfoot -22.2412 -13.9274
rtoes -13.4756
lfemur -28.6232 -10.3561 -23.5608
ltibia 40.9288
lfoot -40.8675 17.9627
ltoes -28.5738
809
root -0.0764098 15.6261 19.1413 -145.253 -37.7427 -192.978
lowerback -22.077 -0.633308 -7.76704
upperback -6.42705 0.0946766 -5.33952
thorax 5.20177 -0.481317 -1.38204
lowerneck -6.39847 6.5895 2.34092
upperneck 14.5449 8.73701 -2.30249
head 5.64839 4.11014 -0.511085
rclavicle -2.13694e-015 4.21423e-014
rhumerus -42.6899 -16.2156 -73.9634
rradius 18.8776
rwrist 2.26706
rhand -5.80783 20.0699
rfingers 7.12502
rthumb 20.0171 -8.91909
lclavicle -2.13694e-015 4.21423e-014
lhumerus -46.5816 -20.0488 87.7713
lradius 80.0836
lwrist -40.7234
lhand 13.482 16.9926
lfingers 7.12502
lthumb 38.4209 42.6761
rfemur 109.666 -152.859 -161.819
rtibia 66.7755
rfoot -22.8818 -14.863
rtoes -14.0773
lfemur -28.2973 -10.9692 -23.4453
ltibia 40.7993
lfoot -41.3039 18.6408
ltoes -28.7111
810
root -0.0482311 15.6219 19.045 -144.865 -37.9543 -193.22
lowerback -22.2383 -0.785962 -8.16216
upperback -6.36662 0.0066423 -5.15996
thorax 5.3469 -0.523526 -0.993051
lowerneck -6.48429 6.59612 2.12612
upperneck 14.2878 8.83533 -2.72078
head 5.59451 4.12351 -0.599845
rclavicle 3.38182e-014 -1.27222e-014
rhumerus -42.6232 -17.5859 -72.3786
rradius 17.579
rwrist 5.49102
rhand -3.39935 18.4166
rfingers 7.12502
rthumb 22.3307 -10.3129
lclavicle 3.38182e-014 -1.27222e-014
lhumerus -46.4538 -18.9281 87.6087
lradius 80.3398
lwrist -41.123
lhand 13.5701 17.2287
lfingers 7.12502
lthumb 38.5041 42.8889
rfemur 109.646 -153.111 -161.72
rtibia 66.8911
rfoot -23.5103 -15.6234
rtoes -13.7878
lfemur -28.3209 -11.6181 -23.099
ltibia 40.6289
lfoot -41.8038 19.6114
ltoes -28.5147
811
root -0.000930703 15.6367 18.9676 -145.271 -37.8005 -192.598
lowerback -21.6058 -0.418759 -7.92775
upperback -6.51049 0.362107 -5.11248
thorax 4.85636 -0.326835 -0.962458
lowerneck -5.92591 6.51617 2.4901
upperneck 13.6481 8.76373 -3.30347
head 5.34138 4.08902 -0.870271
rclavicle -5.47403e-014 2.94201e-014
rhumerus -43.0787 -19.5541 -70.5812
rradius 16.4305
rwrist 8.82416
rhand -1.99074 17.559
rfingers 7.12502
rthumb 23.6823 -11.0021
lclavicle -5.47403e-014 2.94201e-014
lhumerus -46.0674 -18.0361 87.3356
lradius 80.0618
lwrist -41.5412
lhand 13.5746 16.9893
lfingers 7.12502
lthumb 38.5083 42.6484
rfemur 109.994 -154.475 -161.479
rtibia 66.8824
rfoot -24.1368 -16.3026
rtoes -12.7181
lfemur -28.1849 -11.7688 -22.3105
ltibia 40.4878
lfoot -42.0724 20.5492
ltoes -27.595
812
root -0.0230644 15.656 18.8458 -145.576 -38.9235 -191.976
lowerback -22.2063 -0.300932 -6.77971
upperback -6.28651 0.400199 -4.98662
thorax 5.43769 -0.298789 -1.47581
lowerneck -5.71871 6.42096 2.7415
upperneck 13.3135 8.66763 -3.75667
head 5.23085 4.0359 -1.06713
rclavicle -8.00108e-015 -1.39149e-014
rhumerus -43.4807 -21.6152 -68.6441
rradius 15.1314
rwrist 12.307
rhand -1.77619 17.9798
rfingers 7.12502
rthumb 23.888 -10.5545
lclavicle -8.00108e-015 -1.39149e-014
lhumerus -45.5482 -16.9772 87.0057
lradius 79.7464
lwrist -41.9067
lhand 13.2914 15.9491
lfingers 7.12502
lthumb 38.241 41.6824
rfemur 110.614 -153.661 -160.251
rtibia 66.827
rfoot -24.675 -16.0781
rtoes -13.1528
lfemur -27.8878 -11.7645 -21.1342
ltibia 40.4654
lfoot -41.4456 19.9195
ltoes -27.0803
813
root -0.00659113 15.6558 18.757 -145.708 -39.1532 -191.566
lowerback -22.1073 -0.146431 -6.27721
upperback -6.35352 0.484549 -4.87665
thorax 5.32308 -0.246108 -1.61347
lowerneck -6.05377 6.39959 2.44607
upperneck 13.5241 8.68723 -3.86493
head 5.34553 4.01352 -1.03825
rclavicle 5.01434e-014 -1.47101e-014
rhumerus -43.9956 -23.3438 -66.7012
rradius 13.9526
rwrist 15.7507
rhand 1.94696 15.7545
rfingers 7.12502
rthumb 27.4539 -12.2647
lclavicle 5.01434e-014 -1.47101e-014
lhumerus -45.3075 -15.6787 86.6945
lradius 79.5674
lwrist -42.3607
lhand 12.9246 15.6156
lfingers 7.12502
lthumb 37.8947 41.4434
rfemur 110.827 -154.02 -159.765
rtibia 66.7848
rfoot -24.7257 -16.3023
rtoes -12.9403
lfemur -27.9376 -11.7471 -20.4367
ltibia 40.622
lfoot -40.8375 19.1351
ltoes -27.6286
814
root 0.0263081 15.658 18.6934 -146.172 -39.2747 -190.803
lowerback -21.3795 0.151248 -5.47114
upperback -6.56925 0.630382 -4.81039
thorax 4.73172 -0.154398 -1.9428
lowerneck -6.57024 6.46401 2.00913
upperneck 13.8689 8.80838 -3.69121
head 5.51726 4.04695 -0.884944
rclavicle 1.14898e-013 -8.50798e-014
rhumerus -44.9863 -25.5824 -64.3453
rradius 13.02
rwrist 19.7126
rhand 1.7287 15.7504
rfingers 7.12502
rthumb 27.2451 -12.3017
lclavicle 1.14898e-013 -8.50798e-014
lhumerus -45.1997 -14.182 86.2414
lradius 79.3278
lwrist -42.9052
lhand 13.0262 15.9403
lfingers 7.12502
lthumb 37.9906 41.7421
rfemur 111.14 -154.857 -159.157
rtibia 66.6284
rfoot -25.0283 -16.7178
rtoes -12.2292
lfemur -28.0847 -11.6983 -19.5114
ltibia 40.9334
lfoot -40.3998 18.8275
ltoes -28.1694
815
root 0.0402729 15.671 18.6081 -146.78 -39.8974 -189.683
lowerback -21.2194 0.478719 -4.32201
upperback -6.64763 0.825277 -4.63203
thorax 4.59285 -0.0423591 -2.34812
lowerneck -6.80896 6.46044 1.81023
upperneck 13.999 8.83244 -3.69189
head 5.59046 4.04219 -0.841988
rclavicle 4.60683e-014 -5.36719e-014
rhumerus -46.3277 -28.2023 -61.4457
rradius 12.2187
rwrist 23.9186
rhand 1.9899 15.3345
rfingers 7.12502
rthumb 27.4949 -12.6783
lclavicle 4.60683e-014 -5.36719e-014
lhumerus -45.0166 -13.1049 86.0325
lradius 79.2459
lwrist -43.1715
lhand 13.1267 16.3633
lfingers 7.12502
lthumb 38.0855 42.1392
rfemur 111.595 -155.206 -157.892
rtibia 66.401
rfoot -25.7498 -17.0609
rtoes -11.7415
lfemur -28.2818 -11.327 -18.1477
ltibia 41.3306
lfoot -40.0527 18.4504
ltoes -28.1271
816
root 0.0222295 15.6906 18.5079 -147.237 -41.2005 -188.521
lowerback -21.7542 0.742279 -2.68466
upperback -6.61255 0.884339 -4.45231
thorax 4.94508 -0.00259809 -3.07779
lowerneck -6.72644 6.4256 1.81989
upperneck 13.8444 8.80434 -3.84788
head 5.53497 4.02398 -0.898571
rclavicle -2.59911e-014 1.27222e-014
rhumerus -47.9641 -30.7789 -58.4093
rradius 11.568
rwrist 28.0144
rhand 1.8957 14.9961
rfingers 7.12502
rthumb 27.4048 -13.0309
lclavicle -2.59911e-014 1.27222e-014
lhumerus -44.9115 -12.3053 85.9035
lradius 79.1464
lwrist -43.5041
lhand 12.6194 16.572
lfingers 7.12502
lthumb 37.6063 42.4772
rfemur 111.989 -154.386 -155.986
rtibia 66.0765
rfoot -26.3991 -16.8187
rtoes -11.5342
lfemur -28.6601 -10.8288 -16.5221
ltibia 41.7346
lfoot -39.4868 17.617
ltoes -28.25
817
root 0.0515732 15.698 18.4465 -147.345 -40.9328 -188.664
lowerback -20.931 1.06647 -2.68032
upperback -6.61255 1.30145 -4.64895
thorax 4.54198 0.213311 -3.1804
lowerneck -6.90507 6.34346 1.85795
upperneck 13.7465 8.7151 -4.00756
head 5.54117 3.97422 -0.955365
rclavicle -7.42958e-015 -7.95139e-015
rhumerus -49.5296 -33.0809 -55.619
rradius 11.0027
rwrist 31.7207
rhand 1.77892 14.6475
rfingers 7.12502
rthumb 27.2931 -13.3972
lclavicle -7.42958e-015 -7.95139e-015
lhumerus -44.6124 -11.3687 85.6874
lradius 78.8061
lwrist -44.1315
lhand 11.6112 16.0738
lfingers 7.12502
lthumb 36.6529 42.2272
rfemur 112.578 -154.894 -156.323
rtibia 65.8391
rfoot -26.6721 -16.8436
rtoes -11.3684
lfemur -28.5936 -10.3314 -16.6459
ltibia 42.1475
lfoot -39.1304 17.5436
ltoes -28.5586
818
root 0.0690607 15.7135 18.3589 -148.139 -40.855 -188.103
lowerback -20.3812 1.30902 -2.33499
upperback -6.39092 1.59157 -4.47986
thorax 4.51708 0.386959 -3.12171
lowerneck -7.40506 6.30972 1.63584
upperneck 13.9078 8.73248 -4.18705
head 5.67611 3.94785 -0.955329
rclavicle -1.04635e-013 1.07344e-014
rhumerus -50.8185 -35.2866 -52.5515
rradius 10.1116
rwrist 35.8029
rhand 1.94341 14.3001
rfingers 7.12502
rthumb 27.4505 -13.7197
lclavicle -1.04635e-013 1.07344e-014
lhumerus -44.1765 -9.62901 85.4603
lradius 78.2686
lwrist -45.3099
lhand 10.7818 15.1271
lfingers 7.12502
lthumb 35.8675 41.476
rfemur 113.734 -155.353 -156.049
rtibia 65.4241
rfoot -27.3878 -16.7025
rtoes -11.9259
lfemur -28.1389 -9.30082 -16.1967
ltibia 42.5707
lfoot -38.5052 17.1965
ltoes -29.3254
819
root 0.0941415 15.7248 18.2801 -148.474 -41.4043 -187.518
lowerback -20.0441 1.42381 -1.76227
upperback -6.39531 1.63528 -4.2605
thorax 4.3535 0.424081 -3.20015
lowerneck -7.71962 6.26764 1.24014
upperneck 14.1082 8.73041 -4.15932
head 5.77415 3.91693 -0.871525
rclavicle -2.07978e-014 -1.70955e-014
rhumerus -50.0748 -34.811 -53.2413
rradius 9.45239
rwrist 35.7393
rhand 2.26324 12.8204
rfingers 7.12502
rthumb 27.7563 -15.1505
lclavicle -2.07978e-014 -1.70955e-014
lhumerus -44.0209 -8.20697 85.5225
lradius 77.9453
lwrist -46.1006
lhand 10.1131 15.232
lfingers 7.12502
lthumb 35.2336 41.7332
rfemur 114.329 -155.498 -155.228
rtibia 64.9507
rfoot -28.2281 -16.9125
rtoes -11.4345
lfemur -28.5082 -8.51569 -15.3282
ltibia 43.0722
lfoot -37.1939 17.0168
ltoes -29.8633
820
root 0.116863 15.7545 18.2066 -148.776 -41.9456 -186.933
lowerback -19.6668 1.59614 -1.15253
upperback -6.44844 1.74516 -4.13435
thorax 4.1236 0.487757 -3.38656
lowerneck -7.69167 6.22194 1.33303
upperneck 14.0105 8.69249 -4.42641
head 5.75415 3.88718 -0.973869
rclavicle -4.04278e-014 5.96354e-014
rhumerus -49.5387 -34.5043 -53.9327
rradius 8.83564
rwrist 35.6371
rhand 2.12892 11.6199
rfingers 7.12502
rthumb 27.6279 -16.3716
lclavicle -4.04278e-014 5.96354e-014
lhumerus -44.1033 -7.38974 85.6056
lradius 78.1538
lwrist -45.9541
lhand 9.92909 15.649
lfingers 7.12502
lthumb 35.0591 42.1913
rfemur 114.96 -155.699 -154.451
rtibia 64.3111
rfoot -28.5821 -17.312
rtoes -11.5272
lfemur -29.0016 -7.6166 -14.5047
ltibia 43.6059
lfoot -35.7144 17.2482
ltoes -31.3295
821
root 0.135485 15.7989 18.1334 -149.384 -42.5795 -186.241
lowerback -19.1655 1.73654 -0.41522
upperback -6.32919 1.82457 -3.96163
thorax 4.01599 0.549148 -3.60464
lowerneck -8.05034 6.18746 1.4698
upperneck 14.0787 8.68518 -4.75382
head 5.85803 3.86032 -1.08465
rclavicle 4.74598e-015 -2.5842e-014
rhumerus -48.7216 -34.2203 -54.685
rradius 7.89565
rwrist 35.4887
rhand 0.354281 11.3486
rfingers 7.12502
rthumb 25.9297 -16.9029
lclavicle 4.74598e-015 -2.5842e-014
lhumerus -44.0415 -6.66048 85.6448
lradius 78.5832
lwrist -45.2879
lhand 9.97003 15.771
lfingers 7.12502
lthumb 35.0979 42.3041
rfemur 115.985 -155.828 -153.726
rtibia 63.5541
rfoot -28.5172 -17.7383
rtoes -12.1536
lfemur -29.2855 -6.83732 -13.5895
ltibia 44.2556
lfoot -34.3938 17.255
ltoes -31.8438
